<mxfile host="app.diagrams.net" modified="2023-10-29T04:48:39.615Z" agent="Mozilla/5.0 (Windows NT 10.0; Win64; x64) AppleWebKit/537.36 (KHTML, like Gecko) Chrome/118.0.0.0 Safari/537.36 Edg/118.0.2088.76" version="22.0.8" etag="LysV1iT16w8ju_VWnpnt" type="github">
  <diagram name="PÃ¡gina-1" id="8_C8zEX-3BwXcpDlRh0o">
    <mxGraphModel>
      <root>
        <mxCell id="0" />
        <mxCell id="1" parent="0" />
      </root>
    </mxGraphModel>
  </diagram>
</mxfile>
